<?xml version="1.0" standalone="no"?>
<!DOCTYPE svg PUBLIC "-//W3C//DTD SVG 20010904//EN"
 "http://www.w3.org/TR/2001/REC-SVG-20010904/DTD/svg10.dtd">
<svg version="1.0" xmlns="http://www.w3.org/2000/svg"
 width="807.000000pt" height="500.000000pt" viewBox="0 0 807.000000 500.000000"
 preserveAspectRatio="xMidYMid meet">

<g transform="translate(0.000000,500.000000) scale(0.100000,-0.100000)"
fill="#000000" stroke="none">
<path d="M1670 2980 l0 -1640 1090 0 1090 0 0 180 0 180 -870 0 -870 0 0 1460
0 1460 -220 0 -220 0 0 -1640z"/>
<path d="M5022 3816 c-306 -58 -588 -244 -739 -488 -58 -93 -123 -254 -158
-394 -116 -454 2 -964 295 -1277 134 -144 371 -260 605 -298 111 -18 330 -16
441 4 517 93 827 419 906 952 7 52 13 172 13 285 -1 159 -5 215 -23 305 -43
219 -112 381 -218 514 -146 182 -356 316 -592 378 -83 22 -123 26 -277 29
-125 2 -202 -1 -253 -10z m402 -356 c209 -53 400 -217 475 -409 55 -138 98
-413 86 -546 -24 -268 -100 -456 -248 -611 -79 -84 -149 -130 -254 -168 -257
-91 -545 -28 -731 163 -260 267 -329 659 -190 1078 48 146 108 244 204 331 77
71 195 135 296 162 101 26 260 26 362 0z"/>
</g>
</svg>
