<?xml version="1.0" standalone="no"?>
<!DOCTYPE svg PUBLIC "-//W3C//DTD SVG 20010904//EN"
 "http://www.w3.org/TR/2001/REC-SVG-20010904/DTD/svg10.dtd">
<svg version="1.0" xmlns="http://www.w3.org/2000/svg"
 width="235.000000pt" height="112.000000pt" viewBox="0 0 235.000000 112.000000"
 preserveAspectRatio="xMidYMid meet">

<g transform="translate(0.000000,112.000000) scale(0.100000,-0.100000)"
fill="#000000" stroke="none">
<path d="M0 560 l0 -560 1175 0 1175 0 0 74 c0 63 -3 75 -17 79 -17 4 -17 5 0
6 16 1 17 31 17 481 l0 480 -1175 0 -1175 0 0 -560z m408 144 c12 -4 22 -12
22 -20 0 -10 -15 -12 -69 -7 -56 5 -74 2 -100 -13 -41 -24 -61 -70 -61 -139 0
-107 47 -150 157 -143 44 3 63 0 63 -8 0 -18 -25 -24 -93 -24 -98 0 -151 43
-168 136 -17 87 19 176 83 207 33 17 123 22 166 11z m802 -174 c0 -173 -1
-180 -20 -180 -19 0 -20 7 -20 180 0 173 1 180 20 180 19 0 20 -7 20 -180z
m-561 64 c18 -23 21 -41 21 -135 0 -87 -3 -109 -14 -109 -8 0 -16 5 -18 11 -3
9 -9 9 -25 0 -12 -6 -42 -11 -67 -11 -57 0 -86 25 -86 73 0 52 36 80 111 85
l60 4 -3 32 c-4 41 -36 57 -90 44 -27 -6 -45 -5 -51 1 -15 15 28 30 90 30 44
1 54 -3 72 -25z m131 16 c0 -7 6 -7 19 0 11 5 42 10 69 10 39 0 53 -5 73 -26
21 -23 24 -36 27 -135 4 -105 4 -109 -17 -109 -20 0 -21 5 -21 98 0 119 -11
142 -70 142 -30 0 -43 -6 -59 -26 -18 -23 -21 -41 -21 -120 0 -87 -1 -94 -20
-94 -19 0 -20 7 -20 135 0 128 1 135 20 135 11 0 20 -5 20 -10z m680 -91 c0
-123 7 -139 60 -139 68 0 80 22 80 140 0 93 1 100 20 100 19 0 20 -7 20 -135
0 -113 -2 -135 -15 -135 -8 0 -15 5 -15 10 0 7 -6 7 -19 0 -11 -5 -43 -10 -71
-10 -41 0 -56 5 -75 25 -24 23 -25 31 -25 135 0 103 1 110 20 110 19 0 20 -7
20 -101z m419 92 c26 -17 1 -31 -44 -24 -63 8 -97 -2 -93 -30 2 -16 21 -31 70
-54 73 -35 92 -58 82 -98 -10 -38 -41 -55 -104 -55 -68 0 -100 8 -100 26 0 10
14 12 63 7 96 -9 134 21 86 66 -12 11 -35 23 -51 26 -41 9 -88 52 -88 80 0 43
36 65 104 65 34 0 67 -4 75 -9z m255 -20 c20 -21 27 -40 29 -72 l2 -44 -92 -3
c-82 -2 -93 -5 -93 -21 0 -10 10 -31 22 -46 20 -26 24 -27 90 -23 50 4 68 2
68 -7 0 -16 -32 -25 -97 -25 -44 0 -58 5 -84 28 -27 24 -33 37 -37 85 -8 101
34 157 117 157 39 0 52 -5 75 -29z"/>
<path d="M585 483 c-62 -6 -85 -21 -85 -59 0 -34 13 -44 59 -44 39 0 71 34 71
75 0 19 -1 34 -2 33 -2 -1 -21 -3 -43 -5z"/>
<path d="M2001 564 c-12 -15 -21 -35 -21 -45 0 -17 8 -19 75 -19 41 0 75 4 75
9 0 19 -21 66 -33 73 -27 17 -75 8 -96 -18z"/>
</g>
</svg>
