<?xml version="1.0" encoding="UTF-8"?>
<svg width="149px" height="34px" viewBox="0 0 149 34" version="1.1" xmlns="http://www.w3.org/2000/svg" xmlns:xlink="http://www.w3.org/1999/xlink">
    <!-- Generator: Sketch 53.2 (72643) - https://sketchapp.com -->
    <title>logo-useanimations copy 2</title>
    <desc>Created with Sketch.</desc>
    <g id="Page-1" stroke="none" stroke-width="1" fill="none" fill-rule="evenodd">
        <g id="logo-useanimations-copy-2" fill="#FFFFFF">
            <g id="Group">
                <path d="M11.2894132,33.8901244 C11.5651614,33.8901244 12.5925926,34.0674001 12.5925926,32.7855934 C12.5925926,26.8447166 12.5925926,20.9038398 12.5925926,14.962963 L12.5925926,14.962963 C12.5925926,13.3061087 11.2494468,11.962963 9.59259259,11.962963 L3,11.962963 C1.34314575,11.962963 -2.02906125e-16,13.3061087 0,14.962963 C0,17.6174899 0,20.2720168 0,22.9265437 C0,28.9815621 5.05444245,33.8901244 11.2894132,33.8901244 Z" id="Oval" fill-opacity="0.1"></path>
                <path d="M32.6097015,33.9871002 C33.0371112,33.9871002 34.6296296,34.2618775 34.6296296,32.2750772 C34.6296296,22.5167181 34.6296296,12.7583591 34.6296296,3 L34.6296296,3 C34.6296296,1.34314575 33.2864839,5.83819232e-16 31.6296296,8.8817842e-16 L18.1111111,0 C16.4542569,3.04359188e-16 15.1111111,1.34314575 15.1111111,3 C15.1111111,7.6645167 15.1111111,12.3290334 15.1111111,16.9935501 C15.1111111,26.3788287 22.9454969,33.9871002 32.6097015,33.9871002 Z" id="Oval" fill-opacity="0.2" transform="translate(24.870370, 17.000000) scale(1, -1) translate(-24.870370, -17.000000) "></path>
            </g>
            <path d="M54.245,21.73 C53.9549985,21.8100004 53.5650025,21.8999995 53.075,22 C52.5849975,22.1000005 51.9850036,22.15 51.275,22.15 C50.6949971,22.15 50.2100019,22.0650009 49.82,21.895 C49.4299981,21.7249992 49.1150012,21.4850015 48.875,21.175 C48.6349988,20.8649985 48.4625005,20.4900022 48.3575,20.05 C48.2524995,19.6099978 48.2,19.1250026 48.2,18.595 L48.2,14.245 L49.175,14.245 L49.175,18.28 C49.175,18.8300027 49.2149996,19.2949981 49.295,19.675 C49.3750004,20.0550019 49.5049991,20.3624988 49.685,20.5975 C49.8650009,20.8325012 50.0974986,21.0024995 50.3825,21.1075 C50.6675014,21.2125005 51.014998,21.265 51.425,21.265 C51.8850023,21.265 52.2849983,21.2400003 52.625,21.19 C52.9650017,21.1399998 53.1799995,21.0950002 53.27,21.055 L53.27,14.245 L54.245,14.245 L54.245,21.73 Z M58.415,21.31 C58.9750028,21.31 59.4374982,21.2175009 59.8025,21.0325 C60.1675018,20.8474991 60.35,20.5350022 60.35,20.095 C60.35,19.8849989 60.3175003,19.7050007 60.2525,19.555 C60.1874997,19.4049992 60.0800007,19.2700006 59.93,19.15 C59.7799993,19.0299994 59.5825012,18.9150006 59.3375,18.805 C59.0924988,18.6949995 58.7900018,18.5650008 58.43,18.415 C58.1399986,18.2949994 57.8650013,18.1725006 57.605,18.0475 C57.3449987,17.9224994 57.115001,17.7775008 56.915,17.6125 C56.714999,17.4474992 56.5550006,17.2500011 56.435,17.02 C56.3149994,16.7899988 56.255,16.5100016 56.255,16.18 C56.255,15.5499968 56.4924976,15.040002 56.9675,14.65 C57.4425024,14.2599981 58.0949959,14.065 58.925,14.065 C59.4550026,14.065 59.8924983,14.1099996 60.2375,14.2 C60.5825017,14.2900005 60.8249993,14.3699997 60.965,14.44 L60.74,15.31 C60.6199994,15.2499997 60.4175014,15.1700005 60.1325,15.07 C59.8474986,14.9699995 59.4300027,14.92 58.88,14.92 C58.6599989,14.92 58.452501,14.9424998 58.2575,14.9875 C58.062499,15.0325002 57.8900007,15.1024995 57.74,15.1975 C57.5899992,15.2925005 57.4700005,15.4124993 57.38,15.5575 C57.2899996,15.7025007 57.245,15.8799989 57.245,16.09 C57.245,16.300001 57.2849996,16.4799992 57.365,16.63 C57.4450004,16.7800007 57.5624992,16.9124994 57.7175,17.0275 C57.8725008,17.1425006 58.0624989,17.2499995 58.2875,17.35 C58.5125011,17.4500005 58.7699985,17.5599994 59.06,17.68 C59.3600015,17.8000006 59.6474986,17.9224994 59.9225,18.0475 C60.1975014,18.1725006 60.439999,18.3224991 60.65,18.4975 C60.8600011,18.6725009 61.0299993,18.8824988 61.16,19.1275 C61.2900006,19.3725012 61.355,19.6799981 61.355,20.05 C61.355,20.7500035 61.0925026,21.2799982 60.5675,21.64 C60.0424974,22.0000018 59.3250046,22.18 58.415,22.18 C57.7349966,22.18 57.2150018,22.1225006 56.855,22.0075 C56.4949982,21.8924994 56.2550006,21.8050003 56.135,21.745 L56.39,20.86 C56.4200001,20.8800001 56.4849995,20.9124998 56.585,20.9575 C56.6850005,21.0025002 56.8199992,21.0524997 56.99,21.1075 C57.1600009,21.1625003 57.3624988,21.2099998 57.5975,21.25 C57.8325012,21.2900002 58.1049984,21.31 58.415,21.31 Z M62.78,18.115 C62.78,17.4349966 62.877499,16.8425025 63.0725,16.3375 C63.267501,15.8324975 63.5224984,15.4100017 63.8375,15.07 C64.1525016,14.7299983 64.512498,14.4775008 64.9175,14.3125 C65.322502,14.1474992 65.7399978,14.065 66.17,14.065 C67.1200047,14.065 67.8774972,14.3749969 68.4425,14.995 C69.0075028,15.6150031 69.29,16.5699935 69.29,17.86 C69.29,17.9400004 69.2875,18.0199996 69.2825,18.1 C69.2775,18.1800004 69.27,18.2549997 69.26,18.325 L63.815,18.325 C63.8450002,19.2750048 64.0799978,20.0049975 64.52,20.515 C64.9600022,21.0250025 65.6599952,21.28 66.62,21.28 C67.1500027,21.28 67.5699984,21.2300005 67.88,21.13 C68.1900016,21.0299995 68.4149993,20.9450004 68.555,20.875 L68.735,21.715 C68.5949993,21.7950004 68.3325019,21.8899995 67.9475,22 C67.5624981,22.1100005 67.1100026,22.165 66.59,22.165 C65.9099966,22.165 65.3300024,22.065001 64.85,21.865 C64.3699976,21.664999 63.9750016,21.3850018 63.665,21.025 C63.3549984,20.6649982 63.1300007,20.2375025 62.99,19.7425 C62.8499993,19.2474975 62.78,18.705003 62.78,18.115 Z M68.285,17.5 C68.2649999,16.689996 68.0750018,16.0600023 67.715,15.61 C67.3549982,15.1599978 66.8450033,14.935 66.185,14.935 C65.8349982,14.935 65.5225014,15.0049993 65.2475,15.145 C64.9724986,15.2850007 64.732501,15.4724988 64.5275,15.7075 C64.322499,15.9425012 64.1625006,16.2149985 64.0475,16.525 C63.9324994,16.8350016 63.8650001,17.1599983 63.845,17.5 L68.285,17.5 Z M78.32,22 C78.1799993,21.589998 78.0350007,21.185002 77.885,20.785 C77.7349993,20.384998 77.5900007,19.9750021 77.45,19.555 L73.07,19.555 C72.9299993,19.9750021 72.7875007,20.387498 72.6425,20.7925 C72.4974993,21.197502 72.3550007,21.599998 72.215,22 L70.25,22 C70.6400019,20.8899944 71.0099982,19.8650047 71.36,18.925 C71.7100018,17.9849953 72.0524983,17.0950042 72.3875,16.255 C72.7225017,15.4149958 73.0549984,14.6150038 73.385,13.855 C73.7150017,13.0949962 74.0549982,12.3450037 74.405,11.605 L76.19,11.605 C76.5400018,12.3450037 76.8799983,13.0949962 77.21,13.855 C77.5400016,14.6150038 77.8724983,15.4149958 78.2075,16.255 C78.5425017,17.0950042 78.8874982,17.9849953 79.2425,18.925 C79.5975018,19.8650047 79.9699981,20.8899944 80.36,22 L78.32,22 Z M75.26,13.615 C75.0299988,14.1450027 74.7675015,14.7899962 74.4725,15.55 C74.1774985,16.3100038 73.8700016,17.1349955 73.55,18.025 L76.97,18.025 C76.6499984,17.1349955 76.3400015,16.3050039 76.04,15.535 C75.7399985,14.7649961 75.4800011,14.1250025 75.26,13.615 Z M81.59,14.41 C81.9400017,14.3099995 82.3949972,14.2150005 82.955,14.125 C83.5150028,14.0349996 84.1349966,13.99 84.815,13.99 C85.4550032,13.99 85.9899978,14.0774991 86.42,14.2525 C86.8500021,14.4275009 87.1924987,14.6724984 87.4475,14.9875 C87.7025013,15.3025016 87.8824995,15.6824978 87.9875,16.1275 C88.0925005,16.5725022 88.145,17.0599973 88.145,17.59 L88.145,22 L86.33,22 L86.33,17.875 C86.33,17.4549979 86.3025003,17.0975015 86.2475,16.8025 C86.1924997,16.5074985 86.1025006,16.2675009 85.9775,16.0825 C85.8524994,15.8974991 85.6825011,15.7625004 85.4675,15.6775 C85.2524989,15.5924996 84.9900015,15.55 84.68,15.55 C84.4499988,15.55 84.2100012,15.5649999 83.96,15.595 C83.7099987,15.6250001 83.5250006,15.6499999 83.405,15.67 L83.405,22 L81.59,22 L81.59,14.41 Z M92.195,22 L90.38,22 L90.38,14.155 L92.195,14.155 L92.195,22 Z M92.39,11.86 C92.39,12.2000017 92.2800011,12.469999 92.06,12.67 C91.8399989,12.870001 91.5800015,12.97 91.28,12.97 C90.9699984,12.97 90.7050011,12.870001 90.485,12.67 C90.2649989,12.469999 90.155,12.2000017 90.155,11.86 C90.155,11.5099983 90.2649989,11.235001 90.485,11.035 C90.7050011,10.834999 90.9699984,10.735 91.28,10.735 C91.5800015,10.735 91.8399989,10.834999 92.06,11.035 C92.2800011,11.235001 92.39,11.5099983 92.39,11.86 Z M98.975,17.875 C98.975,17.0549959 98.872501,16.4625018 98.6675,16.0975 C98.462499,15.7324982 98.0800028,15.55 97.52,15.55 C97.319999,15.55 97.1000012,15.5649999 96.86,15.595 C96.6199988,15.6250001 96.4400006,15.6499999 96.32,15.67 L96.32,22 L94.505,22 L94.505,14.41 C94.8550017,14.3099995 95.3124972,14.2150005 95.8775,14.125 C96.4425028,14.0349996 97.0399968,13.99 97.67,13.99 C98.2100027,13.99 98.6524983,14.0599993 98.9975,14.2 C99.3425017,14.3400007 99.6299988,14.5249988 99.86,14.755 C99.9700005,14.6749996 100.109999,14.5900005 100.28,14.5 C100.450001,14.4099996 100.639999,14.3275004 100.85,14.2525 C101.060001,14.1774996 101.282499,14.1150003 101.5175,14.065 C101.752501,14.0149998 101.989999,13.99 102.23,13.99 C102.840003,13.99 103.342498,14.0774991 103.7375,14.2525 C104.132502,14.4275009 104.442499,14.6724984 104.6675,14.9875 C104.892501,15.3025016 105.0475,15.6824978 105.1325,16.1275 C105.2175,16.5725022 105.26,17.0599973 105.26,17.59 L105.26,22 L103.445,22 L103.445,17.875 C103.445,17.0549959 103.345001,16.4625018 103.145,16.0975 C102.944999,15.7324982 102.560003,15.55 101.99,15.55 C101.699999,15.55 101.425001,15.5974995 101.165,15.6925 C100.904999,15.7875005 100.710001,15.8799996 100.58,15.97 C100.66,16.2200013 100.715,16.4849986 100.745,16.765 C100.775,17.0450014 100.79,17.3449984 100.79,17.665 L100.79,22 L98.975,22 L98.975,17.875 Z M110.24,20.725 C110.800003,20.725 111.224999,20.6950003 111.515,20.635 L111.515,18.625 C111.414999,18.5949999 111.270001,18.5650001 111.08,18.535 C110.889999,18.5049999 110.680001,18.49 110.45,18.49 C110.249999,18.49 110.047501,18.5049999 109.8425,18.535 C109.637499,18.5650001 109.452501,18.6199996 109.2875,18.7 C109.122499,18.7800004 108.99,18.8924993 108.89,19.0375 C108.789999,19.1825007 108.74,19.3649989 108.74,19.585 C108.74,20.0150022 108.874999,20.3124992 109.145,20.4775 C109.415001,20.6425008 109.779998,20.725 110.24,20.725 Z M110.09,13.96 C110.690003,13.96 111.194998,14.0349993 111.605,14.185 C112.015002,14.3350007 112.342499,14.5449987 112.5875,14.815 C112.832501,15.0850014 113.007499,15.4124981 113.1125,15.7975 C113.217501,16.1825019 113.27,16.6049977 113.27,17.065 L113.27,21.82 C112.989999,21.8800003 112.567503,21.9524996 112.0025,22.0375 C111.437497,22.1225004 110.800004,22.165 110.09,22.165 C109.619998,22.165 109.190002,22.1200004 108.8,22.03 C108.409998,21.9399995 108.077501,21.795001 107.8025,21.595 C107.527499,21.394999 107.312501,21.1350016 107.1575,20.815 C107.002499,20.4949984 106.925,20.1000024 106.925,19.63 C106.925,19.1799977 107.012499,18.8000016 107.1875,18.49 C107.362501,18.1799984 107.599998,17.927501 107.9,17.7325 C108.200001,17.537499 108.547498,17.3975004 108.9425,17.3125 C109.337502,17.2274996 109.749998,17.185 110.18,17.185 C110.380001,17.185 110.589999,17.1974999 110.81,17.2225 C111.030001,17.2475001 111.264999,17.2899997 111.515,17.35 L111.515,17.05 C111.515,16.839999 111.49,16.640001 111.44,16.45 C111.39,16.259999 111.302501,16.0925007 111.1775,15.9475 C111.052499,15.8024993 110.887501,15.6900004 110.6825,15.61 C110.477499,15.5299996 110.220002,15.49 109.91,15.49 C109.489998,15.49 109.105002,15.5199997 108.755,15.58 C108.404998,15.6400003 108.120001,15.7099996 107.9,15.79 L107.675,14.32 C107.905001,14.2399996 108.239998,14.1600004 108.68,14.08 C109.120002,13.9999996 109.589997,13.96 110.09,13.96 Z M115.4,12.085 L117.215,11.785 L117.215,14.155 L120.005,14.155 L120.005,15.67 L117.215,15.67 L117.215,18.865 C117.215,19.4950032 117.314999,19.9449987 117.515,20.215 C117.715001,20.4850014 118.054998,20.62 118.535,20.62 C118.865002,20.62 119.157499,20.5850004 119.4125,20.515 C119.667501,20.4449996 119.869999,20.3800003 120.02,20.32 L120.32,21.76 C120.109999,21.8500004 119.835002,21.9424995 119.495,22.0375 C119.154998,22.1325005 118.755002,22.18 118.295,22.18 C117.734997,22.18 117.267502,22.1050008 116.8925,21.955 C116.517498,21.8049993 116.220001,21.5875014 116,21.3025 C115.779999,21.0174986 115.625,20.672502 115.535,20.2675 C115.445,19.862498 115.4,19.4000026 115.4,18.88 L115.4,12.085 Z M123.59,22 L121.775,22 L121.775,14.155 L123.59,14.155 L123.59,22 Z M123.785,11.86 C123.785,12.2000017 123.675001,12.469999 123.455,12.67 C123.234999,12.870001 122.975001,12.97 122.675,12.97 C122.364998,12.97 122.100001,12.870001 121.88,12.67 C121.659999,12.469999 121.55,12.2000017 121.55,11.86 C121.55,11.5099983 121.659999,11.235001 121.88,11.035 C122.100001,10.834999 122.364998,10.735 122.675,10.735 C122.975001,10.735 123.234999,10.834999 123.455,11.035 C123.675001,11.235001 123.785,11.5099983 123.785,11.86 Z M132.995,18.07 C132.995,18.6900031 132.905001,19.2549975 132.725,19.765 C132.544999,20.2750025 132.290002,20.7099982 131.96,21.07 C131.629998,21.4300018 131.232502,21.709999 130.7675,21.91 C130.302498,22.110001 129.790003,22.21 129.23,22.21 C128.669997,22.21 128.160002,22.110001 127.7,21.91 C127.239998,21.709999 126.845002,21.4300018 126.515,21.07 C126.184998,20.7099982 125.927501,20.2750025 125.7425,19.765 C125.557499,19.2549975 125.465,18.6900031 125.465,18.07 C125.465,17.4499969 125.557499,16.8875025 125.7425,16.3825 C125.927501,15.8774975 126.187498,15.4450018 126.5225,15.085 C126.857502,14.7249982 127.254998,14.447501 127.715,14.2525 C128.175002,14.057499 128.679997,13.96 129.23,13.96 C129.780003,13.96 130.287498,14.057499 130.7525,14.2525 C131.217502,14.447501 131.614998,14.7249982 131.945,15.085 C132.275002,15.4450018 132.532499,15.8774975 132.7175,16.3825 C132.902501,16.8875025 132.995,17.4499969 132.995,18.07 Z M131.135,18.07 C131.135,17.2899961 130.967502,16.6725023 130.6325,16.2175 C130.297498,15.7624977 129.830003,15.535 129.23,15.535 C128.629997,15.535 128.162502,15.7624977 127.8275,16.2175 C127.492498,16.6725023 127.325,17.2899961 127.325,18.07 C127.325,18.8600039 127.492498,19.4849977 127.8275,19.945 C128.162502,20.4050023 128.629997,20.635 129.23,20.635 C129.830003,20.635 130.297498,20.4050023 130.6325,19.945 C130.967502,19.4849977 131.135,18.8600039 131.135,18.07 Z M134.87,14.41 C135.220002,14.3099995 135.674997,14.2150005 136.235,14.125 C136.795003,14.0349996 137.414997,13.99 138.095,13.99 C138.735003,13.99 139.269998,14.0774991 139.7,14.2525 C140.130002,14.4275009 140.472499,14.6724984 140.7275,14.9875 C140.982501,15.3025016 141.162499,15.6824978 141.2675,16.1275 C141.372501,16.5725022 141.425,17.0599973 141.425,17.59 L141.425,22 L139.61,22 L139.61,17.875 C139.61,17.4549979 139.5825,17.0975015 139.5275,16.8025 C139.4725,16.5074985 139.382501,16.2675009 139.2575,16.0825 C139.132499,15.8974991 138.962501,15.7625004 138.7475,15.6775 C138.532499,15.5924996 138.270002,15.55 137.96,15.55 C137.729999,15.55 137.490001,15.5649999 137.24,15.595 C136.989999,15.6250001 136.805001,15.6499999 136.685,15.67 L136.685,22 L134.87,22 L134.87,14.41 Z M145.61,20.695 C146.090002,20.695 146.439999,20.6375006 146.66,20.5225 C146.880001,20.4074994 146.99,20.2100014 146.99,19.93 C146.99,19.6699987 146.872501,19.4550008 146.6375,19.285 C146.402499,19.1149991 146.015003,18.930001 145.475,18.73 C145.144998,18.6099994 144.842501,18.4825007 144.5675,18.3475 C144.292499,18.2124993 144.055001,18.0550009 143.855,17.875 C143.654999,17.6949991 143.497501,17.4775013 143.3825,17.2225 C143.267499,16.9674987 143.21,16.6550018 143.21,16.285 C143.21,15.5649964 143.474997,14.9975021 144.005,14.5825 C144.535003,14.1674979 145.254995,13.96 146.165,13.96 C146.625002,13.96 147.064998,14.0024996 147.485,14.0875 C147.905002,14.1725004 148.219999,14.2549996 148.43,14.335 L148.1,15.805 C147.899999,15.7149995 147.645002,15.6325004 147.335,15.5575 C147.024998,15.4824996 146.665002,15.445 146.255,15.445 C145.884998,15.445 145.585001,15.5074994 145.355,15.6325 C145.124999,15.7575006 145.01,15.9499987 145.01,16.21 C145.01,16.3400007 145.0325,16.4549995 145.0775,16.555 C145.1225,16.6550005 145.199999,16.7474996 145.31,16.8325 C145.420001,16.9175004 145.564999,17.0024996 145.745,17.0875 C145.925001,17.1725004 146.144999,17.2599995 146.405,17.35 C146.835002,17.5100008 147.199998,17.6674992 147.5,17.8225 C147.800001,17.9775008 148.047499,18.152499 148.2425,18.3475 C148.437501,18.542501 148.58,18.7649988 148.67,19.015 C148.76,19.2650013 148.805,19.5649983 148.805,19.915 C148.805,20.6650038 148.527503,21.2324981 147.9725,21.6175 C147.417497,22.0025019 146.625005,22.195 145.595,22.195 C144.904997,22.195 144.350002,22.1375006 143.93,22.0225 C143.509998,21.9074994 143.215001,21.8150003 143.045,21.745 L143.36,20.23 C143.630001,20.3400005 143.952498,20.4449995 144.3275,20.545 C144.702502,20.6450005 145.129998,20.695 145.61,20.695 Z" id="useAnimations" fill-rule="nonzero"></path>
        </g>
    </g>
</svg>